<svg width="132.000000" height="34.697266" viewBox="0 0 132 34.6973" fill="none" xmlns="http://www.w3.org/2000/svg" xmlns:xlink="http://www.w3.org/1999/xlink">
	<desc>
			Created with Pixso.
	</desc>
	<defs>
		<linearGradient x1="132.000000" y1="7.517700" x2="0.000000" y2="7.517700" id="paint_linear_272_72_0" gradientUnits="userSpaceOnUse">
			<stop stop-color="#57B4F8"/>
			<stop offset="1.000000" stop-color="#5873FF"/>
		</linearGradient>
	</defs>
	<path id="Vector" d="M21.86 0L21.86 14.74L36.96 14.74L36.96 20.66L21.86 20.66L21.86 34.69L15.09 34.69L15.09 20.66L0 20.66L0 14.74L15.09 14.74L15.09 0L21.86 0ZM69.38 0L69.38 14.74L84.48 14.74L84.48 20.66L69.38 20.66L69.38 34.69L62.61 34.69L62.61 20.66L47.52 20.66L47.52 14.74L62.61 14.74L62.61 0L69.38 0ZM116.9 14.74L116.9 0L110.13 0L110.13 14.74L95.04 14.74L95.04 20.66L110.13 20.66L110.13 34.69L116.9 34.69L116.9 20.66L132 20.66L132 14.74L116.9 14.74Z" fill="url(#paint_linear_272_72_0)" fill-opacity="1.000000" fill-rule="evenodd"/>
</svg>
