<svg width="142.000000" height="65.901337" viewBox="0 0 142 65.9013" fill="none" xmlns="http://www.w3.org/2000/svg" xmlns:xlink="http://www.w3.org/1999/xlink">
	<desc>
			Created with Pixso.
	</desc>
	<defs/>
	<path id="Parfe" d="M106.88 15.19L98.97 15.19L98.97 42.53L95.02 42.53L95.02 15.19L90.21 15.19L90.21 11.63L95.02 11.63C95.09 9.56 95.26 8.02 95.52 7C96.77 2.41 100.55 0.07 106.88 0L106.88 3.67Q102.64 3.67 100.78 5.47C99.57 6.68 98.97 8.66 98.97 11.41L98.97 11.63L106.88 11.63L106.88 15.19ZM22.42 3.16Q24.84 4.81 26.13 7.1L26.13 7.1L26.13 7.1Q27.62 9.74 27.62 13.21Q27.62 16.69 26.13 19.33L26.13 19.33Q24.84 21.62 22.42 23.27Q18.86 25.7 11.63 25.7L4.18 25.7L4.18 42.53L0 42.53L0 0.73L11.63 0.73Q18.86 0.73 22.42 3.16ZM18.58 20.84Q21.07 19.65 22.28 17.69Q23.44 15.81 23.44 13.21Q23.44 10.62 22.28 8.74L22.28 8.74Q21.07 6.77 18.58 5.59Q16.32 4.51 11.41 4.51L4.18 4.51L4.18 21.91L11.41 21.91C14.68 21.91 17.07 21.56 18.58 20.84ZM64.84 42.53L60.88 42.53L60.88 37.11L60.77 37.11C59.45 39.11 57.72 40.63 55.57 41.69Q54.55 42.2 53.47 42.54L53.47 42.54Q51.22 43.27 48.74 43.27Q44.63 43.27 41.28 41.67Q38.91 40.55 36.93 38.64Q34.8 36.56 33.62 34.04L33.62 34.04Q32.13 30.87 32.13 27Q32.13 23.26 33.56 20.19L33.56 20.19Q34.76 17.59 36.99 15.47Q39.18 13.38 41.8 12.23L41.8 12.23L41.8 12.23Q44.96 10.84 48.74 10.84C51.22 10.84 53.52 11.37 55.63 12.42C57.77 13.48 59.49 15.02 60.77 17.06L60.88 17.06L60.88 11.63L64.84 11.63L64.84 42.53ZM78.82 17.85C80.41 16.19 82.57 15.25 85.32 15.02L85.32 10.84C83.1 10.99 81.29 11.44 79.9 12.2C78.5 12.95 77.41 14.25 76.62 16.1L76.51 16.1L76.51 11.63L72.55 11.63L72.55 42.53L76.51 42.53L76.51 24.46Q76.51 20.99 78.14 18.69Q78.45 18.25 78.82 17.85ZM141.82 27.96C141.85 27.73 141.87 27.54 141.87 27.39Q141.87 24.23 140.82 21.46Q139.64 18.35 137.13 15.76C133.96 12.48 130.14 10.84 125.66 10.84Q122.59 10.84 119.92 11.88Q116.85 13.07 114.31 15.64Q111.91 18.1 110.73 21.05Q109.62 23.86 109.62 27.11C109.62 31.55 111.18 35.36 114.31 38.52Q116.73 40.95 119.66 42.13Q122.46 43.27 125.72 43.27C129.14 43.27 132.25 42.27 135.04 40.27Q137.12 38.78 138.59 36.83Q140.06 34.86 140.91 32.42L136.73 32.42Q136.22 33.8 135.38 34.95Q134.2 36.57 132.38 37.73C130.35 39.05 128.11 39.71 125.66 39.71C122.61 39.71 119.88 38.6 117.47 36.38C115.1 34.15 113.83 31.54 113.68 28.52L141.82 28.52L141.82 27.96ZM57.49 36.04Q59.29 34.18 60.2 31.95L60.2 31.95Q61.11 29.72 61.11 27.11Q61.11 24.51 60.2 22.27L60.2 22.27L60.2 22.27Q59.29 20.04 57.49 18.19C55.12 15.66 52.2 14.4 48.74 14.4C45.08 14.4 42.05 15.62 39.64 18.07Q38.33 19.4 37.51 20.98L37.51 20.98Q36.08 23.7 36.08 27.17C36.08 30.78 37.29 33.78 39.7 36.15C42.11 38.52 45.12 39.71 48.74 39.71C52.2 39.71 55.12 38.48 57.49 36.04ZM133.68 17.39C135.9 19.39 137.28 21.91 137.81 24.96L113.68 24.96C114.17 21.91 115.53 19.39 117.75 17.39C120.01 15.4 122.67 14.4 125.72 14.4Q128.33 14.4 130.54 15.36Q132.23 16.09 133.68 17.39Z" fill="#FFFFFF" fill-opacity="1.000000" fill-rule="evenodd"/>
	<path id="кондитерская студия &amp; кофейня" d="M118.16 58.92C118.64 58.96 119.05 59.08 119.4 59.29C119.76 59.5 120.03 59.78 120.23 60.13C120.42 60.48 120.52 60.89 120.52 61.37C120.52 61.86 120.43 62.27 120.24 62.63C120.05 62.98 119.78 63.26 119.43 63.47C119.08 63.67 118.66 63.79 118.16 63.83L118.16 65.9L117.4 65.9L117.4 63.83Q116.69 63.77 116.16 63.47C115.8 63.26 115.53 62.98 115.33 62.63C115.14 62.27 115.04 61.86 115.04 61.37C115.04 60.89 115.13 60.47 115.32 60.12C115.51 59.76 115.79 59.48 116.14 59.28C116.5 59.07 116.93 58.95 117.42 58.92L117.42 56.99L118.16 56.99L118.16 58.92ZM130.83 57.01C130.81 57.31 130.73 57.56 130.61 57.76C130.49 57.96 130.31 58.11 130.07 58.21C129.84 58.32 129.53 58.37 129.15 58.37Q128.57 58.37 128.21 58.21C127.98 58.11 127.81 57.97 127.71 57.77C127.6 57.57 127.53 57.32 127.51 57.01L128.24 57.01Q128.28 57.49 128.49 57.66Q128.7 57.82 129.17 57.82C129.44 57.82 129.65 57.77 129.81 57.65C129.97 57.53 130.06 57.32 130.09 57.01L130.83 57.01ZM101.62 63.41L101.15 63.87L99.64 62.4C99.41 62.86 99.13 63.22 98.81 63.48C98.49 63.74 98.1 63.87 97.64 63.87C97.08 63.87 96.59 63.67 96.18 63.28C95.77 62.89 95.57 62.41 95.57 61.86Q95.57 61.48 95.69 61.16Q96.01 60.38 97.09 59.9C96.84 59.66 96.66 59.44 96.54 59.24C96.41 59.03 96.35 58.79 96.35 58.52C96.35 58.1 96.51 57.75 96.82 57.48C97.14 57.2 97.51 57.06 97.93 57.06C98.36 57.06 98.72 57.21 99.04 57.51C99.35 57.81 99.51 58.18 99.51 58.6C99.51 58.94 99.38 59.25 99.14 59.51C98.89 59.78 98.58 59.97 98.23 60.09L99.47 61.32L100.44 59.47L101.17 59.47L99.95 61.79L101.62 63.41ZM98.85 58.53C98.85 58.29 98.76 58.08 98.57 57.92C98.4 57.76 98.18 57.68 97.92 57.68C97.68 57.68 97.47 57.76 97.28 57.92C97.1 58.07 97.01 58.27 97.01 58.51C97.01 58.83 97.26 59.2 97.76 59.63C97.98 59.55 98.15 59.47 98.28 59.41C98.42 59.34 98.55 59.22 98.66 59.07C98.79 58.91 98.85 58.74 98.85 58.53ZM9.06 61.37C9.06 61.76 9 62.12 8.9 62.42C8.79 62.73 8.65 62.99 8.45 63.2C8.26 63.41 8.03 63.58 7.75 63.69C7.47 63.8 7.17 63.85 6.83 63.85C6.52 63.85 6.23 63.8 5.96 63.69C5.69 63.58 5.46 63.41 5.26 63.2Q4.97 62.88 4.8 62.42Q4.64 61.96 4.64 61.37C4.64 60.84 4.73 60.39 4.91 60.03Q5.09 59.65 5.38 59.4Q5.52 59.28 5.67 59.19Q6.17 58.9 6.86 58.9C7.29 58.9 7.67 59 8 59.19Q8.14 59.28 8.27 59.38Q8.57 59.64 8.77 60.03C8.96 60.39 9.06 60.84 9.06 61.37ZM33.29 58.9C33.7 58.9 34.05 58.99 34.34 59.17C34.64 59.34 34.86 59.6 35.02 59.92C35.18 60.24 35.26 60.62 35.26 61.05L35.26 61.53L31.99 61.53C32 62.07 32.14 62.48 32.4 62.76Q32.48 62.84 32.56 62.9L32.56 62.9Q32.93 63.18 33.51 63.18C33.82 63.18 34.08 63.15 34.32 63.1C34.55 63.04 34.8 62.96 35.05 62.85L35.05 63.54C34.8 63.64 34.56 63.72 34.32 63.77C34.09 63.82 33.81 63.85 33.48 63.85C33.03 63.85 32.63 63.76 32.28 63.57C31.93 63.39 31.66 63.12 31.47 62.75Q31.18 62.2 31.18 61.41C31.18 60.89 31.27 60.44 31.44 60.07C31.62 59.69 31.86 59.4 32.18 59.2Q32.26 59.15 32.34 59.11L32.34 59.11Q32.76 58.9 33.29 58.9ZM38.83 58.9C39.42 58.9 39.89 59.1 40.25 59.51C40.61 59.92 40.79 60.54 40.79 61.37C40.79 61.91 40.71 62.36 40.54 62.74C40.38 63.1 40.15 63.38 39.86 63.57C39.57 63.76 39.22 63.85 38.82 63.85C38.58 63.85 38.36 63.82 38.17 63.75C37.98 63.69 37.82 63.6 37.68 63.5C37.55 63.4 37.44 63.28 37.35 63.15L37.29 63.15C37.3 63.26 37.32 63.38 37.33 63.54C37.34 63.69 37.35 63.83 37.35 63.94L37.35 65.9L36.56 65.9L36.56 58.99L37.2 58.99L37.31 59.64L37.35 59.64C37.44 59.5 37.55 59.38 37.68 59.26C37.82 59.15 37.98 59.06 38.17 59Q38.45 58.9 38.83 58.9ZM44.04 63.85C43.62 63.85 43.24 63.76 42.91 63.59C42.59 63.42 42.33 63.15 42.14 62.79C41.95 62.43 41.86 61.96 41.86 61.4C41.86 60.81 41.96 60.34 42.16 59.97C42.35 59.6 42.62 59.33 42.95 59.16Q43.45 58.9 44.1 58.9C44.34 58.9 44.57 58.93 44.8 58.98Q45.14 59.05 45.35 59.16L45.11 59.81C44.97 59.75 44.8 59.7 44.61 59.66C44.42 59.61 44.24 59.59 44.08 59.59C43.76 59.59 43.49 59.65 43.29 59.79C43.08 59.93 42.92 60.13 42.82 60.4C42.72 60.66 42.67 60.99 42.67 61.39C42.67 61.77 42.72 62.1 42.82 62.36C42.92 62.63 43.07 62.83 43.28 62.97C43.48 63.1 43.73 63.17 44.03 63.17C44.29 63.17 44.52 63.15 44.72 63.09C44.92 63.04 45.1 62.97 45.27 62.9L45.27 63.59C45.11 63.67 44.93 63.74 44.74 63.78C44.55 63.83 44.32 63.85 44.04 63.85ZM65.91 63.85C65.49 63.85 65.11 63.76 64.78 63.59C64.45 63.42 64.19 63.15 64 62.79C63.82 62.43 63.73 61.96 63.73 61.4C63.73 60.81 63.82 60.34 64.02 59.97C64.22 59.6 64.48 59.33 64.81 59.16C65.15 58.99 65.53 58.9 65.96 58.9C66.2 58.9 66.44 58.93 66.66 58.98C66.89 59.03 67.07 59.09 67.22 59.16L66.98 59.81C66.83 59.75 66.67 59.7 66.48 59.66C66.29 59.61 66.11 59.59 65.94 59.59C65.62 59.59 65.36 59.65 65.15 59.79C64.94 59.93 64.79 60.13 64.69 60.4C64.59 60.66 64.54 60.99 64.54 61.39C64.54 61.77 64.59 62.1 64.69 62.36C64.79 62.63 64.94 62.83 65.14 62.97C65.34 63.1 65.6 63.17 65.9 63.17Q66.29 63.17 66.58 63.09C66.79 63.04 66.97 62.97 67.14 62.9L67.14 63.59C66.98 63.67 66.8 63.74 66.6 63.78C66.41 63.83 66.18 63.85 65.91 63.85ZM113.98 61.37C113.98 61.76 113.93 62.12 113.82 62.42C113.72 62.73 113.57 62.99 113.38 63.2C113.19 63.41 112.95 63.58 112.67 63.69C112.4 63.8 112.1 63.85 111.76 63.85C111.44 63.85 111.15 63.8 110.89 63.69C110.62 63.58 110.39 63.41 110.19 63.2C110 62.99 109.84 62.73 109.73 62.42C109.62 62.12 109.57 61.76 109.57 61.37C109.57 60.84 109.66 60.39 109.84 60.03C110.01 59.66 110.27 59.38 110.6 59.19C110.93 59 111.33 58.9 111.78 58.9Q112.39 58.9 112.85 59.15Q112.89 59.17 112.92 59.19C113.26 59.38 113.51 59.66 113.7 60.03C113.89 60.39 113.98 60.84 113.98 61.37ZM123.7 58.9C124.11 58.9 124.46 58.99 124.75 59.17C125.04 59.34 125.27 59.6 125.42 59.92Q125.66 60.4 125.66 61.05L125.66 61.53L122.4 61.53C122.41 62.07 122.54 62.48 122.81 62.76C123.07 63.04 123.44 63.18 123.92 63.18C124.22 63.18 124.49 63.15 124.72 63.1C124.96 63.04 125.2 62.96 125.45 62.85L125.45 63.54C125.21 63.64 124.97 63.72 124.73 63.77C124.49 63.82 124.21 63.85 123.88 63.85C123.43 63.85 123.03 63.76 122.68 63.57C122.34 63.39 122.07 63.12 121.87 62.75C121.68 62.39 121.59 61.94 121.59 61.41C121.59 60.89 121.67 60.44 121.84 60.07C122.02 59.69 122.27 59.4 122.58 59.2Q122.66 59.15 122.75 59.11Q123.17 58.9 123.7 58.9ZM53.1 58.91C53.68 58.91 54.11 59.04 54.39 59.29C54.67 59.55 54.81 59.95 54.81 60.51L54.81 63.76L54.24 63.76L54.09 63.08L54.05 63.08C53.92 63.26 53.78 63.4 53.63 63.52C53.48 63.63 53.32 63.72 53.13 63.77C52.94 63.82 52.72 63.85 52.45 63.85C52.17 63.85 51.91 63.8 51.68 63.7C51.45 63.6 51.27 63.44 51.14 63.23C51.01 63.02 50.95 62.75 50.95 62.43C50.95 61.96 51.13 61.59 51.51 61.34C51.88 61.08 52.46 60.94 53.24 60.91L54.05 60.88L54.05 60.6C54.05 60.2 53.96 59.93 53.79 59.77C53.62 59.62 53.37 59.54 53.06 59.54C52.81 59.54 52.57 59.58 52.35 59.66C52.12 59.73 51.91 59.81 51.71 59.91L51.47 59.32C51.68 59.21 51.93 59.11 52.21 59.03C52.5 58.95 52.79 58.91 53.1 58.91ZM3.1 58.99L3.96 58.99L1.92 61.29L4.13 63.76L3.22 63.76L1.06 61.34L1.06 63.76L0.28 63.76L0.28 58.99L1.06 58.99L1.06 61.3L3.1 58.99ZM11.17 58.99L11.17 60.97L13.76 60.97L13.76 58.99L14.54 58.99L14.54 63.76L13.76 63.76L13.76 61.63L11.17 61.63L11.17 63.76L10.39 63.76L10.39 58.99L11.17 58.99ZM19.69 58.99L19.69 63.1L20.38 63.1L20.38 65.42L19.62 65.42L19.62 63.76L16.3 63.76L16.3 65.42L15.56 65.42L15.56 63.1L15.94 63.1C16.21 62.72 16.44 62.31 16.62 61.86C16.8 61.41 16.94 60.94 17.02 60.46Q17.17 59.72 17.18 58.99L19.69 58.99ZM22.14 61.9C22.14 61.95 22.14 62.03 22.13 62.13C22.13 62.23 22.13 62.33 22.13 62.44C22.12 62.55 22.11 62.65 22.11 62.75C22.1 62.85 22.1 62.93 22.09 62.99L24.64 58.99L25.61 58.99L25.61 63.76L24.88 63.76L24.88 60.57C24.88 60.42 24.89 60.27 24.89 60.12C24.9 59.96 24.91 59.85 24.91 59.77L22.37 63.76L21.4 63.76L21.4 58.99L22.14 58.99L22.14 61.9ZM30.51 59.65L28.95 59.65L28.95 63.76L28.18 63.76L28.18 59.65L26.64 59.65L26.64 58.99L30.51 58.99L30.51 59.65ZM49.32 58.99L50.17 58.99L48.13 61.29L50.34 63.76L49.43 63.76L47.28 61.34L47.28 63.76L46.49 63.76L46.49 58.99L47.28 58.99L47.28 61.3L49.32 58.99ZM56.67 63.76L55.76 63.76L57.12 61.76C56.94 61.71 56.76 61.64 56.59 61.53C56.42 61.43 56.28 61.28 56.17 61.1C56.06 60.91 56.01 60.67 56.01 60.4C56.01 59.94 56.16 59.59 56.47 59.35C56.78 59.11 57.19 58.99 57.7 58.99L59.84 58.99L59.84 63.76L59.05 63.76L59.05 61.86L57.9 61.86L56.67 63.76ZM71.65 59.65L70.09 59.65L70.09 63.76L69.32 63.76L69.32 59.65L67.78 59.65L67.78 58.99L71.65 58.99L71.65 59.65ZM71.93 58.99L72.77 58.99L73.8 61.7C73.86 61.86 73.92 62.02 73.96 62.17C74.02 62.31 74.06 62.46 74.11 62.6C74.15 62.74 74.18 62.87 74.2 63L74.24 63C74.28 62.85 74.33 62.66 74.41 62.42C74.49 62.18 74.57 61.94 74.65 61.69L75.62 58.99L76.46 58.99L74.41 64.42C74.3 64.72 74.16 64.97 74.01 65.19C73.86 65.42 73.68 65.59 73.46 65.71Q73.14 65.9 72.67 65.9C72.53 65.9 72.41 65.89 72.3 65.87C72.19 65.86 72.1 65.84 72.02 65.83L72.02 65.2C72.09 65.21 72.17 65.23 72.25 65.24C72.35 65.25 72.45 65.26 72.55 65.26C72.73 65.26 72.89 65.22 73.02 65.15C73.16 65.08 73.27 64.99 73.37 64.85C73.46 64.73 73.54 64.58 73.61 64.41L73.86 63.78L71.93 58.99ZM80.68 58.99L80.68 63.1L81.37 63.1L81.37 65.42L80.62 65.42L80.62 63.76L77.29 63.76L77.29 65.42L76.55 65.42L76.55 63.1L76.93 63.1C77.2 62.72 77.43 62.31 77.61 61.86C77.79 61.41 77.93 60.94 78.02 60.46C78.11 59.96 78.16 59.48 78.17 58.99L80.68 58.99ZM83.13 61.9C83.13 61.95 83.13 62.03 83.13 62.13C83.13 62.23 83.12 62.33 83.12 62.44C83.11 62.55 83.11 62.65 83.1 62.75C83.09 62.85 83.09 62.93 83.08 62.99L85.64 58.99L86.6 58.99L86.6 63.76L85.87 63.76L85.87 60.57C85.87 60.42 85.88 60.27 85.89 60.12C85.89 59.96 85.9 59.85 85.9 59.77L83.37 63.76L82.4 63.76L82.4 58.99L83.13 58.99L83.13 61.9ZM88.5 63.76L87.59 63.76L88.95 61.76C88.77 61.71 88.59 61.64 88.42 61.53Q88.34 61.49 88.28 61.43Q88.11 61.29 88 61.1C87.89 60.91 87.84 60.67 87.84 60.4Q87.84 59.92 88.07 59.6Q88.16 59.46 88.3 59.35C88.61 59.11 89.02 58.99 89.53 58.99L91.67 58.99L91.67 63.76L90.88 63.76L90.88 61.86L89.73 61.86L88.5 63.76ZM108.03 58.99L108.88 58.99L106.85 61.29L109.05 63.76L108.15 63.76L105.99 61.34L105.99 63.76L105.21 63.76L105.21 58.99L105.99 58.99L105.99 61.3L108.03 58.99ZM127.71 61.9C127.71 61.95 127.7 62.03 127.7 62.13C127.7 62.23 127.69 62.33 127.69 62.44C127.68 62.55 127.68 62.65 127.67 62.75C127.66 62.85 127.66 62.93 127.65 62.99L130.21 58.99L131.17 58.99L131.17 63.76L130.44 63.76L130.44 60.57C130.44 60.42 130.45 60.27 130.46 60.12C130.46 59.96 130.47 59.85 130.47 59.77L127.94 63.76L126.97 63.76L126.97 58.99L127.71 58.99L127.71 61.9ZM133.56 58.99L133.56 60.97L136.15 60.97L136.15 58.99L136.93 58.99L136.93 63.76L136.15 63.76L136.15 61.63L133.56 61.63L133.56 63.76L132.78 63.76L132.78 58.99L133.56 58.99ZM138.83 63.76L137.92 63.76L139.28 61.76C139.1 61.71 138.92 61.64 138.75 61.53C138.57 61.43 138.43 61.28 138.33 61.1C138.22 60.91 138.17 60.67 138.17 60.4Q138.17 59.92 138.39 59.6Q138.49 59.46 138.63 59.35C138.94 59.11 139.35 58.99 139.86 58.99L142 58.99L142 63.76L141.21 63.76L141.21 61.86L140.05 61.86L138.83 63.76ZM33.28 59.54Q32.89 59.54 32.62 59.72Q32.49 59.79 32.39 59.91Q32.07 60.26 32.01 60.9L34.44 60.9C34.44 60.63 34.4 60.39 34.32 60.19C34.23 59.99 34.1 59.83 33.93 59.72Q33.68 59.54 33.28 59.54ZM123.69 59.54C123.31 59.54 123.02 59.66 122.8 59.91C122.58 60.14 122.46 60.48 122.41 60.9L124.84 60.9C124.84 60.63 124.8 60.39 124.72 60.19C124.64 59.99 124.51 59.83 124.34 59.72C124.17 59.6 123.95 59.54 123.69 59.54ZM5.45 61.37Q5.45 61.93 5.59 62.34C5.69 62.62 5.85 62.83 6.06 62.98Q6.37 63.2 6.85 63.2C7.17 63.2 7.43 63.13 7.64 62.98C7.85 62.83 8 62.62 8.09 62.34Q8.25 61.93 8.25 61.37Q8.25 60.8 8.09 60.4C7.99 60.13 7.84 59.92 7.63 59.78C7.43 59.63 7.17 59.56 6.84 59.56C6.35 59.56 6 59.72 5.78 60.04Q5.45 60.52 5.45 61.37ZM38.69 59.56C38.37 59.56 38.11 59.62 37.92 59.75Q37.85 59.79 37.79 59.84Q37.59 60.01 37.49 60.29C37.4 60.53 37.35 60.84 37.35 61.21L37.35 61.37C37.35 61.76 37.39 62.09 37.47 62.36C37.55 62.64 37.69 62.84 37.89 62.99C38.09 63.13 38.36 63.2 38.71 63.2C39 63.2 39.24 63.12 39.42 62.96C39.61 62.8 39.75 62.58 39.84 62.31C39.93 62.03 39.98 61.71 39.98 61.36C39.98 60.81 39.87 60.37 39.66 60.05C39.45 59.72 39.13 59.56 38.69 59.56ZM110.38 61.37C110.38 61.74 110.43 62.07 110.52 62.34C110.62 62.62 110.78 62.83 110.98 62.98C111.19 63.13 111.46 63.2 111.78 63.2C112.1 63.2 112.36 63.13 112.57 62.98C112.78 62.83 112.93 62.62 113.02 62.34C113.12 62.07 113.17 61.74 113.17 61.37C113.17 60.99 113.12 60.66 113.02 60.4C112.92 60.13 112.77 59.92 112.56 59.78C112.36 59.63 112.09 59.56 111.77 59.56C111.28 59.56 110.93 59.72 110.71 60.04C110.49 60.36 110.38 60.8 110.38 61.37ZM117.42 59.57C117.06 59.6 116.77 59.69 116.53 59.84C116.3 59.99 116.13 60.19 116.02 60.45C115.91 60.7 115.86 61.01 115.86 61.37C115.86 61.73 115.91 62.04 116.02 62.3C116.13 62.56 116.3 62.76 116.53 62.91C116.77 63.06 117.06 63.15 117.42 63.19L117.42 59.57ZM118.16 63.19C118.52 63.15 118.81 63.05 119.03 62.91C119.27 62.76 119.44 62.56 119.54 62.3C119.66 62.04 119.71 61.73 119.71 61.37C119.71 61.02 119.66 60.71 119.54 60.46C119.43 60.2 119.26 60 119.03 59.85C118.8 59.7 118.51 59.61 118.16 59.58L118.16 63.19ZM17.87 59.6Q17.83 60.21 17.68 60.86Q17.53 61.5 17.29 62.09C17.14 62.48 16.96 62.82 16.75 63.1L18.93 63.1L18.93 59.6L17.87 59.6ZM78.86 59.6C78.84 60.01 78.78 60.42 78.67 60.86C78.57 61.29 78.44 61.69 78.28 62.09C78.13 62.48 77.95 62.82 77.74 63.1L79.92 63.1L79.92 59.6L78.86 59.6ZM56.77 60.4C56.77 60.68 56.87 60.88 57.07 61.02C57.28 61.15 57.56 61.21 57.93 61.21L59.05 61.21L59.05 59.64L57.78 59.64C57.42 59.64 57.16 59.71 57 59.85C56.84 59.99 56.77 60.18 56.77 60.4ZM88.6 60.4C88.6 60.68 88.7 60.88 88.9 61.02C89.11 61.15 89.39 61.21 89.76 61.21L90.88 61.21L90.88 59.64L89.61 59.64C89.25 59.64 88.99 59.71 88.83 59.85C88.67 59.99 88.6 60.18 88.6 60.4ZM138.92 60.4C138.92 60.68 139.03 60.88 139.23 61.02C139.43 61.15 139.72 61.21 140.09 61.21L141.21 61.21L141.21 59.64L139.94 59.64C139.58 59.64 139.32 59.71 139.16 59.85C139 59.99 138.92 60.18 138.92 60.4ZM99.14 61.93L97.56 60.37C97.19 60.5 96.88 60.7 96.62 60.96C96.36 61.23 96.22 61.53 96.22 61.89C96.22 62.25 96.36 62.57 96.63 62.84C96.9 63.11 97.22 63.24 97.59 63.24C97.84 63.24 98.07 63.17 98.28 63.03C98.49 62.89 98.66 62.74 98.77 62.58C98.88 62.41 99.01 62.19 99.14 61.93ZM53.33 61.45C52.74 61.48 52.33 61.57 52.1 61.74C51.87 61.91 51.76 62.14 51.76 62.44C51.76 62.71 51.84 62.91 52 63.03C52.16 63.15 52.38 63.22 52.63 63.22Q53.13 63.22 53.49 62.99L53.49 62.99Q53.57 62.95 53.64 62.89C53.9 62.66 54.04 62.32 54.04 61.86L54.04 61.43L53.33 61.45Z" fill="#FFFFFF" fill-opacity="1.000000" fill-rule="evenodd"/>
</svg>
