<svg width="110.869568" height="29.142883" viewBox="0 0 110.87 29.1429" fill="none" xmlns="http://www.w3.org/2000/svg" xmlns:xlink="http://www.w3.org/1999/xlink">
	<desc>
			Created with Pixso.
	</desc>
	<defs/>
	<path id="Vector" d="M12.68 16.75L12.68 29.14L18.36 29.14L18.36 16.75L31.04 16.75L31.04 11.78L18.36 11.78L18.36 0L12.68 0L12.68 11.78L0 11.78L0 16.75L12.68 16.75ZM52.59 29.14L52.59 16.75L39.91 16.75L39.91 11.78L52.59 11.78L52.59 0L58.27 0L58.27 11.78L70.95 11.78L70.95 16.75L58.27 16.75L58.27 29.14L52.59 29.14ZM92.5 29.14L92.5 16.75L79.82 16.75L79.82 11.78L92.5 11.78L92.5 0L98.18 0L98.18 11.78L110.87 11.78L110.87 16.75L98.18 16.75L98.18 29.14L92.5 29.14Z" fill="#BD8761" fill-opacity="1.000000" fill-rule="evenodd"/>
</svg>
