<svg width="36.000000" height="36.000000" viewBox="0 0 36 36" fill="none" xmlns="http://www.w3.org/2000/svg" xmlns:xlink="http://www.w3.org/1999/xlink">
	<desc>
			Created with Pixso.
	</desc>
	<defs>
		<filter id="filter_267_106_dd" x="0.000000" y="0.000000" width="36.000000" height="36.000000" filterUnits="userSpaceOnUse" color-interpolation-filters="sRGB">
			<feFlood flood-opacity="0" result="BackgroundImageFix"/>
			<feBlend mode="normal" in="SourceGraphic" in2="BackgroundImageFix" result="shape"/>
			<feColorMatrix in="SourceAlpha" type="matrix" values="0 0 0 0 0 0 0 0 0 0 0 0 0 0 0 0 0 0 127 0" result="hardAlpha"/>
			<feOffset dx="0" dy="-1"/>
			<feGaussianBlur stdDeviation="0"/>
			<feComposite in2="hardAlpha" operator="arithmetic" k2="-1" k3="1"/>
			<feColorMatrix type="matrix" values="0 0 0 0 0 0 0 0 0 0 0 0 0 0 0 0 0 0 0.25 0"/>
			<feBlend mode="normal" in2="shape" result="effect_innerShadow_1"/>
		</filter>
		<linearGradient x1="36.000000" y1="7.800001" x2="0.000000" y2="7.800001" id="paint_linear_267_106_0" gradientUnits="userSpaceOnUse">
			<stop stop-color="#57B4F8"/>
			<stop offset="1.000000" stop-color="#5873FF"/>
		</linearGradient>
		<linearGradient x1="26.964914" y1="18.216675" x2="8.000000" y2="18.216675" id="paint_linear_267_107_0" gradientUnits="userSpaceOnUse">
			<stop stop-color="#57B4F8"/>
			<stop offset="1.000000" stop-color="#5873FF"/>
		</linearGradient>
	</defs>
	<g filter="url(#filter_267_106_dd)">
		<rect id="Rectangle 27" rx="8.000000" width="36.000000" height="36.000000" fill="url(#paint_linear_267_106_0)" fill-opacity="1.000000"/>
	</g>
	<path id="Vector 2" d="M8.7 18L11.18 20.47C11.37 20.67 11.37 20.98 11.18 21.18C10.98 21.37 10.67 21.37 10.47 21.18L7.64 18.35C7.44 18.15 7.44 17.84 7.64 17.64L10.47 14.81C10.67 14.62 10.98 14.62 11.18 14.81C11.37 15.01 11.37 15.32 11.18 15.52L8.7 18Z" fill="url(#paint_linear_267_107_0)" fill-opacity="1.000000" fill-rule="nonzero"/>
	<path id="Vector 2" d="M9.2 18.5L11.18 20.47C11.37 20.67 11.37 20.98 11.18 21.18C10.98 21.37 10.67 21.37 10.47 21.18L7.64 18.35C7.44 18.15 7.44 17.84 7.64 17.64L10.47 14.81C10.67 14.62 10.98 14.62 11.18 14.81C11.37 15.01 11.37 15.32 11.18 15.52L9.2 17.5L26.96 17.5L26.96 18.5L9.2 18.5Z" fill="#FFFFFF" fill-opacity="1.000000" fill-rule="evenodd"/>
</svg>
