<svg width="171.000000" height="44.948730" viewBox="0 0 171 44.9487" fill="none" xmlns="http://www.w3.org/2000/svg" xmlns:xlink="http://www.w3.org/1999/xlink">
	<desc>
			Created with Pixso.
	</desc>
	<defs/>
	<path id="Vector" d="M28.32 0L28.32 19.1L47.88 19.1L47.88 26.76L28.32 26.76L28.32 44.94L19.55 44.94L19.55 26.76L0 26.76L0 19.1L19.55 19.1L19.55 0L28.32 0ZM89.88 0L89.88 19.1L109.44 19.1L109.44 26.76L89.88 26.76L89.88 44.94L81.11 44.94L81.11 26.76L61.56 26.76L61.56 19.1L81.11 19.1L81.11 0L89.88 0ZM151.44 19.1L151.44 0L142.67 0L142.67 19.1L123.12 19.1L123.12 26.76L142.67 26.76L142.67 44.94L151.44 44.94L151.44 26.76L171 26.76L171 19.1L151.44 19.1Z" fill="#BD8761" fill-opacity="1.000000" fill-rule="evenodd"/>
</svg>
